<svg height="512pt" viewBox="0 -16 512 512" width="512pt" xmlns="http://www.w3.org/2000/svg"><path d="m260 328c-6.96875 0-12.910156-4.480469-15.105469-10.703125-2.542969 1.703125-5.605469 2.703125-8.894531 2.703125-6.96875 0-12.910156-4.480469-15.105469-10.703125-2.542969 1.703125-5.605469 2.703125-8.894531 2.703125-8.824219 0-16-7.175781-16-16v-120c0-2.207031 1.792969-4 4-4s4 1.792969 4 4v120c0 4.40625 3.585938 8 8 8s8-3.59375 8-8c0-2.207031 1.792969-4 4-4s4 1.792969 4 4v8c0 4.40625 3.585938 8 8 8s8-3.59375 8-8c0-2.207031 1.792969-4 4-4s4 1.792969 4 4v8c0 4.40625 3.585938 8 8 8s8-3.59375 8-8v-12c0-2.207031 1.792969-4 4-4s4 1.792969 4 4c0 4.40625 3.585938 8 8 8s8-3.59375 8-8v-64c0-2.207031 1.792969-4 4-4s4 1.792969 4 4c0 4.40625 3.585938 8 8 8s8-3.59375 8-8v-27.710938c0-4.273437-1.664062-8.289062-4.6875-11.3125l-18.144531-18.144531c-1.558594-1.558593-1.558594-4.097656 0-5.65625 1.558593-1.558593 4.097656-1.558593 5.65625 0l18.144531 18.144531c4.527344 4.535157 7.03125 10.558594 7.03125 16.96875v27.710938c0 8.824219-7.175781 16-16 16-2.910156 0-5.648438-.785156-8-2.152344v50.152344c0 8.824219-7.175781 16-16 16-2.953125 0-5.726562-.808594-8.105469-2.207031-.886719 7.984375-7.679687 14.207031-15.894531 14.207031zm0 0" fill="#263238"/><path d="m304 124h-112c-2.207031 0-4-1.792969-4-4v-116c0-2.207031 1.792969-4 4-4s4 1.792969 4 4v112h104v-112c0-2.207031 1.792969-4 4-4s4 1.792969 4 4v116c0 2.207031-1.792969 4-4 4zm0 0" fill="#263238"/><path d="m272 304c-2.207031 0-4-1.792969-4-4v-40c0-2.207031 1.792969-4 4-4s4 1.792969 4 4v40c0 2.207031-1.792969 4-4 4zm0 0" fill="#263238"/><path d="m248 308c-2.207031 0-4-1.792969-4-4v-44c0-2.207031 1.792969-4 4-4s4 1.792969 4 4v44c0 2.207031-1.792969 4-4 4zm0 0" fill="#263238"/><path d="m224 300c-2.207031 0-4-1.792969-4-4v-36c0-2.207031 1.792969-4 4-4s4 1.792969 4 4v36c0 2.207031-1.792969 4-4 4zm0 0" fill="#263238"/><path d="m192 120h112v32c0 4.414062-3.585938 8-8 8h-96c-4.414062 0-8-3.585938-8-8zm0 0" fill="#ffd740"/><path d="m296 164h-96c-6.617188 0-12-5.382812-12-12v-32c0-2.207031 1.792969-4 4-4h112c2.207031 0 4 1.792969 4 4v32c0 6.617188-5.382812 12-12 12zm-100-40v28c0 2.207031 1.800781 4 4 4h96c2.199219 0 4-1.792969 4-4v-28zm0 0" fill="#263238"/><path d="m364.71875 284.832031c-1.023438 0-2.046875-.390625-2.832031-1.167969l-31.964844-31.96875c-1.5625-1.558593-1.5625-4.09375 0-5.65625 1.558594-1.558593 4.09375-1.558593 5.652344 0l31.96875 31.96875c1.5625 1.558594 1.5625 4.097657 0 5.65625-.773438.785157-1.800781 1.167969-2.824219 1.167969zm0 0" fill="#263238"/><path d="m296.832031 352.71875h-25.65625c-6.414062 0-12.441406-2.496094-16.96875-7.023438l-3.773437-3.773437c-1.5625-1.5625-1.5625-4.097656 0-5.65625 1.558594-1.5625 4.09375-1.5625 5.65625 0l3.773437 3.773437c3.023438 3.015626 7.039063 4.679688 11.3125 4.679688h25.65625c2.207031 0 4 1.792969 4 4 0 2.210938-1.785156 4-4 4zm0 0" fill="#263238"/><path d="m412.808594 480c-1.023438 0-2.046875-.390625-2.832032-1.167969l-82.023437-82.023437c-1.5625-1.5625-1.5625-4.097656 0-5.65625l79.191406-79.199219c1.503907-1.503906 4.160157-1.503906 5.65625 0l82.023438 82.023437c1.558593 1.558594 1.558593 4.09375 0 5.65625-1.558594 1.558594-4.097657 1.558594-5.65625 0l-79.191407-79.199218-73.535156 73.542968 79.191406 79.191407c1.558594 1.558593 1.558594 4.097656 0 5.65625-.785156.785156-1.800781 1.175781-2.824218 1.175781zm0 0" fill="#263238"/><path d="m409.976562 314.777344-79.191406 79.191406-22.625-22.625c-3.128906-3.128906-3.128906-8.191406 0-11.3125l67.878906-67.878906c3.128907-3.128906 8.191407-3.128906 11.3125 0zm0 0" fill="#ff5252"/><path d="m330.785156 397.976562c-1.023437 0-2.050781-.390624-2.832031-1.167968l-22.632813-22.632813c-4.671874-4.679687-4.671874-12.296875 0-16.96875l67.878907-67.878906c4.527343-4.527344 12.449219-4.535156 16.976562 0l22.625 22.625c1.558594 1.558594 1.558594 4.09375 0 5.65625l-79.191406 79.199219c-.777344.777344-1.800781 1.167968-2.824219 1.167968zm50.902344-104.167968c-1.023438 0-2.046875.390625-2.832031 1.167968l-67.878907 67.878907c-1.550781 1.558593-1.550781 4.097656 0 5.664062l19.808594 19.800781 73.535156-73.542968-19.800781-19.800782c-.777343-.777343-1.800781-1.167968-2.832031-1.167968zm0 0" fill="#263238"/><path d="m215.167969 352.71875c-1.023438 0-2.046875-.390625-2.832031-1.167969-1.558594-1.558593-1.558594-4.09375 0-5.65625l17.136718-17.132812c1.558594-1.5625 4.09375-1.5625 5.65625 0 1.558594 1.558593 1.558594 4.09375 0 5.652343l-17.136718 17.136719c-.785157.777344-1.808594 1.167969-2.824219 1.167969zm0 0" fill="#263238"/><path d="m147.28125 284.832031c-2.210938 0-4-1.792969-4-4v-25.65625c0-6.414062 2.496094-12.441406 7.023438-16.96875l19.597656-19.597656c3.851562-3.855469 9.464844-5.378906 15.035156-4.035156 2.152344.523437 3.46875 2.683593 2.949219 4.832031-.511719 2.144531-2.613281 3.464844-4.832031 2.953125-2.832032-.695313-5.589844.007813-7.503907 1.914063l-19.597656 19.597656c-3.015625 3.015625-4.679687 7.03125-4.679687 11.3125v25.65625c.007812 2.207031-1.777344 3.992187-3.992188 3.992187zm0 0" fill="#263238"/><path d="m99.191406 480c-1.023437 0-2.046875-.390625-2.832031-1.167969-1.558594-1.558593-1.558594-4.097656 0-5.65625l79.191406-79.191406-73.535156-73.542969-79.191406 79.199219c-1.558594 1.558594-4.097657 1.558594-5.65625 0-1.558594-1.5625-1.558594-4.097656 0-5.65625l82.023437-82.023437c1.503906-1.503907 4.160156-1.503907 5.65625 0l79.191406 79.199218c1.5625 1.558594 1.5625 4.097656 0 5.65625l-82.015624 82.015625c-.785157.777344-1.808594 1.167969-2.832032 1.167969zm0 0" fill="#263238"/><path d="m181.222656 393.976562-79.191406-79.191406 22.625-22.625c3.128906-3.128906 8.191406-3.128906 11.3125 0l67.878906 67.878906c3.128906 3.128907 3.128906 8.191407 0 11.3125zm0 0" fill="#40c4ff"/><g fill="#263238"><path d="m181.214844 397.976562c-1.023438 0-2.046875-.390624-2.832032-1.167968l-79.191406-79.199219c-1.558594-1.5625-1.558594-4.097656 0-5.65625l22.625-22.625c4.542969-4.535156 12.464844-4.519531 16.976563 0l67.878906 67.878906c4.671875 4.671875 4.671875 12.289063 0 16.96875l-22.632813 22.632813c-.773437.777344-1.800781 1.167968-2.824218 1.167968zm-73.535156-83.199218 73.535156 73.542968 19.808594-19.800781c1.550781-1.558593 1.550781-4.09375 0-5.65625l-67.878907-67.878906c-1.570312-1.570313-4.113281-1.550781-5.664062 0zm0 0"/><path d="m20 204h-16c-2.207031 0-4-1.792969-4-4s1.792969-4 4-4h16c2.207031 0 4 1.792969 4 4s-1.792969 4-4 4zm0 0"/><path d="m136 204h-100c-2.207031 0-4-1.792969-4-4s1.792969-4 4-4h100c2.207031 0 4 1.792969 4 4s-1.792969 4-4 4zm0 0"/><path d="m508 204h-16c-2.207031 0-4-1.792969-4-4s1.792969-4 4-4h16c2.207031 0 4 1.792969 4 4s-1.792969 4-4 4zm0 0"/><path d="m476 204h-100c-2.207031 0-4-1.792969-4-4s1.792969-4 4-4h100c2.207031 0 4 1.792969 4 4s-1.792969 4-4 4zm0 0"/><path d="m416 44h-32c-2.207031 0-4-1.792969-4-4s1.792969-4 4-4h32c2.207031 0 4 1.792969 4 4s-1.792969 4-4 4zm0 0"/><path d="m400 60c-2.207031 0-4-1.792969-4-4v-32c0-2.207031 1.792969-4 4-4s4 1.792969 4 4v32c0 2.207031-1.792969 4-4 4zm0 0"/><path d="m472 96h-32c-2.207031 0-4-1.792969-4-4s1.792969-4 4-4h32c2.207031 0 4 1.792969 4 4s-1.792969 4-4 4zm0 0"/><path d="m456 112c-2.207031 0-4-1.792969-4-4v-32c0-2.207031 1.792969-4 4-4s4 1.792969 4 4v32c0 2.207031-1.792969 4-4 4zm0 0"/></g></svg>