<svg id="Capa_1" enable-background="new 0 0 512 512" height="512" viewBox="0 0 512 512" width="512" xmlns="http://www.w3.org/2000/svg"><path d="m434.324 71.629h-356.648c-3.579 0-6.724 2.373-7.708 5.814l-62.468 218.638h497l-62.468-218.638c-.983-3.441-4.129-5.814-7.708-5.814z" fill="#f6d190"/><path d="m368.478 103.694h-224.956c-3.579 0-6.724 2.373-7.708 5.814l-36.644 128.258c-1.463 5.121 2.382 10.218 7.708 10.218h298.246c5.326 0 9.171-5.098 7.708-10.218l-36.645-128.258c-.985-3.442-4.13-5.814-7.709-5.814z" fill="#a4ccff"/><path d="m7.5 296.081h497v32.065h-497z" fill="#ecbd83"/><path d="m247.984 7.5h-48.097c-14.107 0-26.086 9.11-30.375 21.767-1.719 5.072 2.357 10.297 7.712 10.297h93.423c5.355 0 9.431-5.225 7.712-10.297-4.289-12.657-16.268-21.767-30.375-21.767z" fill="#857e87"/><path d="m164.959 143.774-20.612 72.145h159.75z" fill="#dbeaff"/><path d="m344.177 135.758h-92.185l108.218 56.113z" fill="#dbeaff"/><path d="m381.736 101.633c-.92-3.22-3.863-5.44-7.211-5.44h-237.049c-3.349 0-6.292 2.22-7.211 5.44l-41.226 144.29c-.646 2.263-.193 4.698 1.224 6.577s3.634 2.984 5.988 2.984h319.5c2.354 0 4.57-1.105 5.988-2.984 1.417-1.879 1.87-4.314 1.224-6.577zm-275.543 138.851 36.94-129.29h225.734l36.94 129.29z"/><path d="m439.566 165.762c-1.138-3.983-5.291-6.29-9.272-5.151-3.982 1.138-6.289 5.289-5.151 9.272l22.903 80.161c.941 3.294 3.944 5.442 7.208 5.442.682 0 1.376-.094 2.064-.291 3.982-1.138 6.289-5.289 5.151-9.272z"/><path d="m511.988 296.081c0-.689-.083-1.382-.277-2.06l-64.128-224.452c-.92-3.22-3.863-5.44-7.211-5.44h-368.743c-3.349 0-6.292 2.22-7.211 5.44l-2.997 10.49c-12.521-1.113-22.372-11.656-22.372-24.462 0-13.545 11.02-24.564 24.564-24.564h97.647c-.607 2.75-.937 5.603-.937 8.532 0 4.142 3.358 7.5 7.5 7.5h112.226c4.142 0 7.5-3.358 7.5-7.5-.001-21.816-17.749-39.565-39.565-39.565h-48.097c-13.008 0-24.567 6.312-31.783 16.032h-104.491c-21.816 0-39.564 17.749-39.564 39.565 0 19.651 14.403 35.994 33.205 39.046l-56.965 199.377c-.194.678-.277 1.371-.277 2.06h-.012v32.065c0 4.142 3.358 7.5 7.5 7.5h40.597v168.855c0 4.142 3.358 7.5 7.5 7.5s7.5-3.358 7.5-7.5v-24.564h385.807v24.564c0 4.142 3.358 7.5 7.5 7.5s7.5-3.358 7.5-7.5v-168.855h40.596c4.142 0 7.5-3.358 7.5-7.5v-32.065h-.012zm-312.101-281.081h48.097c10.931 0 20.217 7.176 23.394 17.064h-94.885c3.177-9.888 12.464-17.064 23.394-17.064zm249.016 449.936h-385.806v-129.29h385.807v129.29zm-433.903-144.291v-17.065h433.389c4.142 0 7.5-3.358 7.5-7.5s-3.358-7.5-7.5-7.5h-430.946l59.843-209.451h357.428l59.843 209.451h-14.102c-4.142 0-7.5 3.358-7.5 7.5s3.358 7.5 7.5 7.5h16.545v17.065z"/><path d="m307.549 209.261-108.258-56.134c-3.678-1.907-8.204-.471-10.11 3.206-1.907 3.677-.471 8.204 3.206 10.111l80.953 41.976h-119.05l17.881-62.585c1.138-3.983-1.168-8.134-5.151-9.272-3.982-1.137-8.134 1.168-9.272 5.151l-20.613 72.145c-.646 2.263-.193 4.698 1.224 6.577s3.634 2.984 5.988 2.984h159.75c3.458 0 6.467-2.364 7.287-5.723.818-3.36-.765-6.844-3.835-8.436z"/><path d="m351.389 133.698c-.92-3.22-3.863-5.44-7.211-5.44h-92.186c-3.458 0-6.467 2.364-7.287 5.723-.819 3.359.765 6.843 3.834 8.435l68.152 35.338c3.678 1.907 8.204.471 10.11-3.206s.471-8.204-3.206-10.111l-40.847-21.18h55.771l14.478 50.673c.941 3.294 3.944 5.442 7.208 5.442.682 0 1.376-.094 2.064-.291 3.982-1.138 6.289-5.289 5.151-9.272z"/></svg>